<?xml version="1.0" encoding="UTF-8" standalone="no"?>
<!-- Created with Inkscape (http://www.inkscape.org/) -->

<svg
   width="210mm"
   height="297mm"
   viewBox="0 0 793.70081 1122.5197"
   version="1.1"
   id="svg5"
   sodipodi:docname="presentation.svg"
   inkscape:version="1.2.2 (b0a8486541, 2022-12-01)"
   xmlns:inkscape="http://www.inkscape.org/namespaces/inkscape"
   xmlns:sodipodi="http://sodipodi.sourceforge.net/DTD/sodipodi-0.dtd"
   xmlns="http://www.w3.org/2000/svg"
   xmlns:svg="http://www.w3.org/2000/svg">
  <sodipodi:namedview
     id="namedview7"
     pagecolor="#ffffff"
     bordercolor="#000000"
     borderopacity="0.25"
     inkscape:showpageshadow="2"
     inkscape:pageopacity="0.0"
     inkscape:pagecheckerboard="0"
     inkscape:deskcolor="#d1d1d1"
     inkscape:document-units="mm"
     showgrid="false"
     inkscape:zoom="0.78216891"
     inkscape:cx="346.47248"
     inkscape:cy="561.25984"
     inkscape:window-width="1920"
     inkscape:window-height="1056"
     inkscape:window-x="0"
     inkscape:window-y="0"
     inkscape:window-maximized="1"
     inkscape:current-layer="layer1" />
  <defs
     id="defs2">
    <clipPath
       id="clipPath5929">
      <path
         clip-rule="nonzero"
         d="m 23,0 h 1 v 9.964844 h -1 z m 0,0"
         id="path7697" />
    </clipPath>
    <clipPath
       id="clipPath7173">
      <path
         clip-rule="nonzero"
         d="m 25,0 h 7 v 9.964844 h -7 z m 0,0"
         id="path3443" />
    </clipPath>
    <clipPath
       id="clipPath7253">
      <path
         clip-rule="nonzero"
         d="m 32,0 h 3 v 9.964844 h -3 z m 0,0"
         id="path9817" />
    </clipPath>
    <clipPath
       id="clipPath8212">
      <path
         clip-rule="nonzero"
         d="m 47,8 h 4 v 7.488281 h -4 z m 0,0"
         id="path5004" />
    </clipPath>
  </defs>
  <g
     inkscape:label="Layer 1"
     inkscape:groupmode="layer"
     id="layer1">
    <g
       inkscape:label=""
       transform="translate(161.07584,459.52025)"
       id="g350">
      <g
         fill="#000000"
         fill-opacity="1"
         id="g38"
         transform="matrix(1.33333,0,0,1.33333,-0.875,0)">
        <g
           id="use36"
           transform="translate(0,11.059)">
          <path
             d="m 10.734375,-8.75 c 0.125,-0.484375 0.15625,-0.625 1.171875,-0.625 0.25,0 0.40625,0 0.40625,-0.265625 0,-0.15625 -0.140625,-0.15625 -0.21875,-0.15625 -0.265625,0 -0.5625,0.03125 -0.828125,0.03125 H 9.5625 c -0.265625,0 -0.5625,-0.03125 -0.84375,-0.03125 -0.09375,0 -0.265625,0 -0.265625,0.265625 0,0.15625 0.09375,0.15625 0.375,0.15625 0.859375,0 0.859375,0.109375 0.859375,0.265625 0,0.03125 0,0.109375 -0.0625,0.328125 L 8.75,-5.3125 H 4.421875 L 5.28125,-8.75 c 0.125,-0.484375 0.15625,-0.625 1.171875,-0.625 0.265625,0 0.40625,0 0.40625,-0.265625 0,-0.15625 -0.125,-0.15625 -0.21875,-0.15625 -0.25,0 -0.5625,0.03125 -0.828125,0.03125 H 4.109375 c -0.265625,0 -0.5625,-0.03125 -0.84375,-0.03125 -0.09375,0 -0.265625,0 -0.265625,0.265625 0,0.15625 0.09375,0.15625 0.375,0.15625 0.859375,0 0.859375,0.109375 0.859375,0.265625 0,0.03125 0,0.109375 -0.0625,0.328125 l -1.9375,7.71875 c -0.125,0.5 -0.15625,0.640625 -1.140625,0.640625 -0.328125,0 -0.4375,0 -0.4375,0.28125 C 0.65625,0 0.8125,0 0.859375,0 1.125,0 1.421875,-0.03125 1.6875,-0.03125 H 3.390625 C 3.65625,-0.03125 3.953125,0 4.234375,0 4.34375,0 4.5,0 4.5,-0.265625 c 0,-0.15625 -0.125,-0.15625 -0.34375,-0.15625 -0.875,0 -0.875,-0.109375 -0.875,-0.25 0,-0.015625 0,-0.109375 0.03125,-0.234375 L 4.296875,-4.890625 H 8.65625 c -0.25,0.953125 -0.984375,3.9375 -1.015625,4.03125 -0.15625,0.421875 -0.375,0.421875 -1.234375,0.4375 -0.171875,0 -0.296875,0 -0.296875,0.28125 C 6.109375,0 6.265625,0 6.3125,0 6.5625,0 6.875,-0.03125 7.140625,-0.03125 h 1.6875 C 9.109375,-0.03125 9.40625,0 9.6875,0 c 0.109375,0 0.265625,0 0.265625,-0.265625 0,-0.15625 -0.125,-0.15625 -0.34375,-0.15625 -0.875,0 -0.875,-0.109375 -0.875,-0.25 0,-0.015625 0,-0.109375 0.03125,-0.234375 z m 0,0"
             id="path98" />
        </g>
      </g>
      <g
         fill="#000000"
         fill-opacity="1"
         id="g308"
         transform="matrix(1.33333,0,0,1.33333,-0.875,0)">
        <g
           id="use40"
           transform="translate(16.732,11.059)">
          <path
             d="m 9.6875,-4.640625 c 0.203125,0 0.453125,0 0.453125,-0.265625 0,-0.265625 -0.25,-0.265625 -0.453125,-0.265625 H 1.234375 c -0.203125,0 -0.453125,0 -0.453125,0.25 0,0.28125 0.234375,0.28125 0.453125,0.28125 z m 0,2.65625 c 0.203125,0 0.453125,0 0.453125,-0.25 0,-0.28125 -0.25,-0.28125 -0.453125,-0.28125 H 1.234375 c -0.203125,0 -0.453125,0 -0.453125,0.265625 0,0.265625 0.234375,0.265625 0.453125,0.265625 z m 0,0"
             id="path102" />
        </g>
      </g>
      <g
         fill="#000000"
         fill-opacity="1"
         id="g313"
         transform="matrix(1.33333,0,0,1.33333,-0.875,0)">
        <g
           id="g311"
           transform="translate(31.643)">
          <path
             d="M 6.28125,7.984375 0.984375,14.53125 c -0.125,0.15625 -0.140625,0.1875 -0.140625,0.234375 0,0.171875 0.140625,0.171875 0.40625,0.171875 h 12.390625 l 1.28125,-3.71875 h -0.375 c -0.375,1.125 -1.375,2.03125 -2.640625,2.46875 -0.234375,0.0625 -1.265625,0.421875 -3.46875,0.421875 H 2.09375 l 5.1875,-6.40625 c 0.09375,-0.125 0.125,-0.171875 0.125,-0.234375 0,-0.0625 -0.015625,-0.078125 -0.109375,-0.203125 L 2.453125,0.59375 h 5.90625 c 1.703125,0 5.140625,0.109375 6.1875,2.90625 h 0.375 L 13.640625,0 H 1.25 C 0.84375,0 0.84375,0.015625 0.84375,0.484375 Z m 0,0"
             id="path106" />
        </g>
      </g>
      <g
         clip-path="url(#clipPath8212)"
         id="g318"
         transform="matrix(1.33333,0,0,1.33333,-0.875,0)">
        <g
           fill="#000000"
           fill-opacity="1"
           id="g50">
          <g
             id="use48"
             transform="translate(47.417,15.49)">
            <path
               d="m 3.09375,-6.8125 c 0,-0.21875 -0.15625,-0.390625 -0.40625,-0.390625 -0.28125,0 -0.578125,0.28125 -0.578125,0.578125 0,0.203125 0.140625,0.390625 0.40625,0.390625 0.25,0 0.578125,-0.25 0.578125,-0.578125 z m -0.828125,4.09375 c 0.140625,-0.3125 0.140625,-0.328125 0.25,-0.625 0.078125,-0.21875 0.140625,-0.375 0.140625,-0.578125 0,-0.5 -0.359375,-0.90625 -0.90625,-0.90625 -1.015625,0 -1.4375,1.59375 -1.4375,1.6875 0,0.109375 0.109375,0.109375 0.140625,0.109375 0.109375,0 0.109375,-0.015625 0.171875,-0.203125 0.296875,-1.015625 0.734375,-1.34375 1.09375,-1.34375 0.09375,0 0.28125,0 0.28125,0.34375 C 2,-4 1.921875,-3.78125 1.875,-3.671875 1.78125,-3.375 1.296875,-2.109375 1.125,-1.640625 1.015625,-1.359375 0.875,-1 0.875,-0.78125 c 0,0.515625 0.375,0.90625 0.890625,0.90625 1.03125,0 1.4375,-1.59375 1.4375,-1.6875 0,-0.109375 -0.109375,-0.109375 -0.140625,-0.109375 -0.109375,0 -0.109375,0.03125 -0.15625,0.203125 -0.203125,0.6875 -0.5625,1.34375 -1.125,1.34375 -0.171875,0 -0.25,-0.109375 -0.25,-0.359375 0,-0.265625 0.0625,-0.421875 0.3125,-1.09375 z m 0,0"
               id="path110" />
          </g>
        </g>
      </g>
      <g
         fill="#000000"
         fill-opacity="1"
         id="g56"
         transform="matrix(1.33333,0,0,1.33333,-0.875,0)">
        <g
           id="use54"
           transform="translate(54.063999,11.059)">
          <path
             d="m 9.96875,-3.328125 c 0.015625,-0.046875 0.0625,-0.140625 0.0625,-0.203125 0,-0.0625 -0.0625,-0.140625 -0.140625,-0.140625 -0.0625,0 -0.09375,0.015625 -0.140625,0.0625 -0.03125,0.015625 -0.03125,0.03125 -0.15625,0.328125 -0.84375,2 -1.453125,2.859375 -3.75,2.859375 H 3.75 c -0.203125,0 -0.234375,0 -0.328125,-0.015625 -0.15625,0 -0.171875,-0.03125 -0.171875,-0.15625 0,-0.09375 0.03125,-0.1875 0.0625,-0.3125 L 4.296875,-4.859375 H 5.71875 c 1.125,0 1.203125,0.234375 1.203125,0.671875 0,0.140625 0,0.265625 -0.09375,0.703125 -0.03125,0.0625 -0.046875,0.109375 -0.046875,0.15625 0,0.09375 0.078125,0.140625 0.15625,0.140625 0.140625,0 0.140625,-0.09375 0.203125,-0.296875 l 0.8125,-3.328125 c 0,-0.078125 -0.046875,-0.140625 -0.140625,-0.140625 -0.125,0 -0.140625,0.046875 -0.203125,0.25 -0.28125,1.109375 -0.5625,1.421875 -1.84375,1.421875 H 4.40625 L 5.296875,-8.8125 c 0.125,-0.5 0.15625,-0.546875 0.734375,-0.546875 h 2.0625 c 1.765625,0 2.125,0.484375 2.125,1.578125 0,0 0,0.40625 -0.0625,0.875 -0.01563,0.0625 -0.03125,0.15625 -0.03125,0.171875 0,0.125 0.07813,0.171875 0.15625,0.171875 0.109375,0 0.15625,-0.0625 0.1875,-0.328125 l 0.296875,-2.5 c 0,-0.046875 0.03125,-0.1875 0.03125,-0.21875 0,-0.15625 -0.125,-0.15625 -0.390625,-0.15625 h -7 c -0.265625,0 -0.40625,0 -0.40625,0.25 0,0.15625 0.09375,0.15625 0.34375,0.15625 0.890625,0 0.890625,0.109375 0.890625,0.265625 0,0.078125 -0.015625,0.125 -0.0625,0.28125 l -1.9375,7.75 c -0.125,0.5 -0.15625,0.640625 -1.15625,0.640625 -0.28125,0 -0.421875,0 -0.421875,0.265625 C 0.65625,0 0.75,0 1.03125,0 H 8.234375 C 8.546875,0 8.5625,-0.015625 8.65625,-0.25 Z m 0,0"
             id="path114" />
        </g>
      </g>
      <g
         fill="#000000"
         fill-opacity="1"
         id="g60"
         transform="matrix(1.33333,0,0,1.33333,-0.875,0)">
        <g
           id="use58"
           transform="translate(64.462997,13.312)">
          <path
             d="m 3.09375,-6.8125 c 0,-0.21875 -0.15625,-0.390625 -0.40625,-0.390625 -0.28125,0 -0.578125,0.28125 -0.578125,0.578125 0,0.203125 0.140625,0.390625 0.40625,0.390625 0.25,0 0.578125,-0.25 0.578125,-0.578125 z m -0.828125,4.09375 c 0.140625,-0.3125 0.140625,-0.328125 0.25,-0.625 0.078125,-0.21875 0.140625,-0.375 0.140625,-0.578125 0,-0.5 -0.359375,-0.90625 -0.90625,-0.90625 -1.015625,0 -1.4375,1.59375 -1.4375,1.6875 0,0.109375 0.109375,0.109375 0.140625,0.109375 0.109375,0 0.109375,-0.015625 0.171875,-0.203125 0.296875,-1.015625 0.734375,-1.34375 1.09375,-1.34375 0.09375,0 0.28125,0 0.28125,0.34375 C 2,-4 1.921875,-3.78125 1.875,-3.671875 1.78125,-3.375 1.296875,-2.109375 1.125,-1.640625 1.015625,-1.359375 0.875,-1 0.875,-0.78125 c 0,0.515625 0.375,0.90625 0.890625,0.90625 1.03125,0 1.4375,-1.59375 1.4375,-1.6875 0,-0.109375 -0.109375,-0.109375 -0.140625,-0.109375 -0.109375,0 -0.109375,0.03125 -0.15625,0.203125 -0.203125,0.6875 -0.5625,1.34375 -1.125,1.34375 -0.171875,0 -0.25,-0.109375 -0.25,-0.359375 0,-0.265625 0.0625,-0.421875 0.3125,-1.09375 z m 0,0"
             id="path118" />
        </g>
      </g>
      <g
         fill="#000000"
         fill-opacity="1"
         id="g64"
         transform="matrix(1.33333,0,0,1.33333,-0.875,0)">
        <g
           id="use62"
           transform="translate(73.500999,11.059)">
          <path
             d="M 2.28125,-10.234375 C 2.28125,-10.5 2.28125,-10.75 2,-10.75 c -0.296875,0 -0.296875,0.25 -0.296875,0.515625 V 3.0625 c 0,0.265625 0,0.515625 0.296875,0.515625 0.28125,0 0.28125,-0.25 0.28125,-0.515625 z m 0,0"
             id="path122" />
        </g>
      </g>
      <g
         fill="#000000"
         fill-opacity="1"
         id="g68"
         transform="matrix(1.33333,0,0,1.33333,-0.875,0)">
        <g
           id="use66"
           transform="translate(77.486,11.059)">
          <path
             d="m 6.734375,-9.609375 c 0,-0.015625 0.0625,-0.203125 0.0625,-0.21875 0,-0.125 -0.109375,-0.125 -0.15625,-0.125 -0.125,0 -0.140625,0.0625 -0.203125,0.28125 l -2.359375,9.5 C 2.890625,-0.3125 2.4375,-0.921875 2.4375,-1.78125 c 0,-0.3125 0,-0.640625 0.671875,-2.421875 C 3.296875,-4.71875 3.375,-4.90625 3.375,-5.15625 c 0,-0.65625 -0.46875,-1.171875 -1.140625,-1.171875 -1.3125,0 -1.84375,2.078125 -1.84375,2.203125 0,0.046875 0.046875,0.125 0.15625,0.125 0.125,0 0.140625,-0.0625 0.203125,-0.265625 0.34375,-1.25 0.90625,-1.765625 1.4375,-1.765625 0.140625,0 0.375,0 0.375,0.46875 0,0.046875 0,0.375 -0.234375,1 -0.78125,2.03125 -0.78125,2.359375 -0.78125,2.6875 0,1.375 1.15625,1.90625 2.4375,2 C 3.875,0.578125 3.765625,1.03125 3.65625,1.484375 c -0.234375,0.859375 -0.328125,1.25 -0.328125,1.3125 0,0.125 0.109375,0.125 0.15625,0.125 0.03125,0 0.09375,0 0.109375,-0.046875 C 3.65625,2.8125 4.25,0.40625 4.296875,0.140625 c 0.53125,0 1.671875,0 2.96875,-1.328125 0.46875,-0.515625 0.890625,-1.171875 1.140625,-1.796875 0.140625,-0.375 0.484375,-1.65625 0.484375,-2.375 0,-0.859375 -0.421875,-0.96875 -0.578125,-0.96875 -0.34375,0 -0.65625,0.34375 -0.65625,0.640625 0,0.171875 0.109375,0.265625 0.15625,0.328125 0.140625,0.125 0.515625,0.515625 0.515625,1.25 0,0.53125 -0.28125,1.578125 -1.203125,2.625 -1.203125,1.34375 -2.3125,1.34375 -2.734375,1.34375 z m 0,0"
             id="path126" />
        </g>
      </g>
      <g
         fill="#000000"
         fill-opacity="1"
         id="g72"
         transform="matrix(1.33333,0,0,1.33333,-0.875,0)">
        <g
           id="use70"
           transform="translate(86.619003,13.312)">
          <path
             d="m 3.09375,-6.8125 c 0,-0.21875 -0.15625,-0.390625 -0.40625,-0.390625 -0.28125,0 -0.578125,0.28125 -0.578125,0.578125 0,0.203125 0.140625,0.390625 0.40625,0.390625 0.25,0 0.578125,-0.25 0.578125,-0.578125 z m -0.828125,4.09375 c 0.140625,-0.3125 0.140625,-0.328125 0.25,-0.625 0.078125,-0.21875 0.140625,-0.375 0.140625,-0.578125 0,-0.5 -0.359375,-0.90625 -0.90625,-0.90625 -1.015625,0 -1.4375,1.59375 -1.4375,1.6875 0,0.109375 0.109375,0.109375 0.140625,0.109375 0.109375,0 0.109375,-0.015625 0.171875,-0.203125 0.296875,-1.015625 0.734375,-1.34375 1.09375,-1.34375 0.09375,0 0.28125,0 0.28125,0.34375 C 2,-4 1.921875,-3.78125 1.875,-3.671875 1.78125,-3.375 1.296875,-2.109375 1.125,-1.640625 1.015625,-1.359375 0.875,-1 0.875,-0.78125 c 0,0.515625 0.375,0.90625 0.890625,0.90625 1.03125,0 1.4375,-1.59375 1.4375,-1.6875 0,-0.109375 -0.109375,-0.109375 -0.140625,-0.109375 -0.109375,0 -0.109375,0.03125 -0.15625,0.203125 -0.203125,0.6875 -0.5625,1.34375 -1.125,1.34375 -0.171875,0 -0.25,-0.109375 -0.25,-0.359375 0,-0.265625 0.0625,-0.421875 0.3125,-1.09375 z m 0,0"
             id="path130" />
        </g>
      </g>
      <g
         fill="#000000"
         fill-opacity="1"
         id="g76"
         transform="matrix(1.33333,0,0,1.33333,-0.875,0)">
        <g
           id="use74"
           transform="translate(90.875,11.059)">
          <path
             d="m 3.921875,-3.34375 c 0.0625,-0.171875 0.0625,-0.203125 0.0625,-0.234375 0,-0.046875 0,-0.078125 -0.0625,-0.25 L 1.40625,-10.421875 C 1.3125,-10.671875 1.234375,-10.75 1.078125,-10.75 c -0.15625,0 -0.296875,0.125 -0.296875,0.28125 0,0.04687 0,0.0625 0.078125,0.234375 l 2.546875,6.65625 -2.546875,6.625 c -0.078125,0.15625 -0.078125,0.1875 -0.078125,0.25 0,0.15625 0.140625,0.28125 0.296875,0.28125 0.1875,0 0.234375,-0.140625 0.296875,-0.28125 z m 0,0"
             id="path134" />
        </g>
      </g>
      <g
         fill="#000000"
         fill-opacity="1"
         id="g80"
         transform="matrix(1.33333,0,0,1.33333,-0.875,0)">
        <g
           id="use78"
           transform="translate(98.850052,11.059)">
          <path
             d="m 4.703125,-10.21875 c 0.078125,-0.15625 0.078125,-0.1875 0.078125,-0.25 0,-0.15625 -0.140625,-0.28125 -0.296875,-0.28125 -0.125,0 -0.21875,0.0625 -0.328125,0.328125 l -2.5,6.578125 c -0.03125,0.078125 -0.078125,0.171875 -0.078125,0.265625 0,0.03125 0,0.0625 0.078125,0.234375 l 2.5,6.578125 c 0.0625,0.171875 0.125,0.34375 0.328125,0.34375 0.15625,0 0.296875,-0.125 0.296875,-0.28125 0,-0.046875 0,-0.0625 -0.078125,-0.234375 l -2.53125,-6.640625 z m 0,0"
             id="path138" />
        </g>
      </g>
      <g
         fill="#000000"
         fill-opacity="1"
         id="g84"
         transform="matrix(1.33333,0,0,1.33333,-0.875,0)">
        <g
           id="use82"
           transform="translate(104.424,11.059)">
          <path
             d="m 6.734375,-9.609375 c 0,-0.015625 0.0625,-0.203125 0.0625,-0.21875 0,-0.125 -0.109375,-0.125 -0.15625,-0.125 -0.125,0 -0.140625,0.0625 -0.203125,0.28125 l -2.359375,9.5 C 2.890625,-0.3125 2.4375,-0.921875 2.4375,-1.78125 c 0,-0.3125 0,-0.640625 0.671875,-2.421875 C 3.296875,-4.71875 3.375,-4.90625 3.375,-5.15625 c 0,-0.65625 -0.46875,-1.171875 -1.140625,-1.171875 -1.3125,0 -1.84375,2.078125 -1.84375,2.203125 0,0.046875 0.046875,0.125 0.15625,0.125 0.125,0 0.140625,-0.0625 0.203125,-0.265625 0.34375,-1.25 0.90625,-1.765625 1.4375,-1.765625 0.140625,0 0.375,0 0.375,0.46875 0,0.046875 0,0.375 -0.234375,1 -0.78125,2.03125 -0.78125,2.359375 -0.78125,2.6875 0,1.375 1.15625,1.90625 2.4375,2 C 3.875,0.578125 3.765625,1.03125 3.65625,1.484375 c -0.234375,0.859375 -0.328125,1.25 -0.328125,1.3125 0,0.125 0.109375,0.125 0.15625,0.125 0.03125,0 0.09375,0 0.109375,-0.046875 C 3.65625,2.8125 4.25,0.40625 4.296875,0.140625 c 0.53125,0 1.671875,0 2.96875,-1.328125 0.46875,-0.515625 0.890625,-1.171875 1.140625,-1.796875 0.140625,-0.375 0.484375,-1.65625 0.484375,-2.375 0,-0.859375 -0.421875,-0.96875 -0.578125,-0.96875 -0.34375,0 -0.65625,0.34375 -0.65625,0.640625 0,0.171875 0.109375,0.265625 0.15625,0.328125 0.140625,0.125 0.515625,0.515625 0.515625,1.25 0,0.53125 -0.28125,1.578125 -1.203125,2.625 -1.203125,1.34375 -2.3125,1.34375 -2.734375,1.34375 z m 0,0"
             id="path142" />
        </g>
      </g>
      <g
         fill="#000000"
         fill-opacity="1"
         id="g88"
         transform="matrix(1.33333,0,0,1.33333,-0.875,0)">
        <g
           id="use86"
           transform="translate(113.556,13.312)">
          <path
             d="m 3.09375,-6.8125 c 0,-0.21875 -0.15625,-0.390625 -0.40625,-0.390625 -0.28125,0 -0.578125,0.28125 -0.578125,0.578125 0,0.203125 0.140625,0.390625 0.40625,0.390625 0.25,0 0.578125,-0.25 0.578125,-0.578125 z m -0.828125,4.09375 c 0.140625,-0.3125 0.140625,-0.328125 0.25,-0.625 0.078125,-0.21875 0.140625,-0.375 0.140625,-0.578125 0,-0.5 -0.359375,-0.90625 -0.90625,-0.90625 -1.015625,0 -1.4375,1.59375 -1.4375,1.6875 0,0.109375 0.109375,0.109375 0.140625,0.109375 0.109375,0 0.109375,-0.015625 0.171875,-0.203125 0.296875,-1.015625 0.734375,-1.34375 1.09375,-1.34375 0.09375,0 0.28125,0 0.28125,0.34375 C 2,-4 1.921875,-3.78125 1.875,-3.671875 1.78125,-3.375 1.296875,-2.109375 1.125,-1.640625 1.015625,-1.359375 0.875,-1 0.875,-0.78125 c 0,0.515625 0.375,0.90625 0.890625,0.90625 1.03125,0 1.4375,-1.59375 1.4375,-1.6875 0,-0.109375 -0.109375,-0.109375 -0.140625,-0.109375 -0.109375,0 -0.109375,0.03125 -0.15625,0.203125 -0.203125,0.6875 -0.5625,1.34375 -1.125,1.34375 -0.171875,0 -0.25,-0.109375 -0.25,-0.359375 0,-0.265625 0.0625,-0.421875 0.3125,-1.09375 z m 0,0"
             id="path146" />
        </g>
      </g>
      <g
         fill="#000000"
         fill-opacity="1"
         id="g92"
         transform="matrix(1.33333,0,0,1.33333,-0.875,0)">
        <g
           id="use90"
           transform="translate(117.813,11.059)">
          <path
             d="M 2.28125,-10.234375 C 2.28125,-10.5 2.28125,-10.75 2,-10.75 c -0.296875,0 -0.296875,0.25 -0.296875,0.515625 V 3.0625 c 0,0.265625 0,0.515625 0.296875,0.515625 0.28125,0 0.28125,-0.25 0.28125,-0.515625 z m 0,0"
             id="path150" />
        </g>
      </g>
    </g>
  </g>
</svg>
